<svg width="24" height="24" viewBox="0 0 24 24" fill="none" xmlns="http://www.w3.org/2000/svg">
    <g clip-path="url(#clip0_125_10290)">
        <path
            d="M20.9399 17.7C20.9399 18.02 20.8699 18.36 20.7099 18.68C20.5499 19 20.3599 19.31 20.0999 19.6C19.6599 20.09 19.1699 20.44 18.6199 20.66C18.0799 20.89 17.4899 21 16.8599 21C15.9399 21 14.96 20.78 13.92 20.34C12.88 19.9 11.8499 19.31 10.8199 18.56C9.77995 17.8 8.79992 16.97 7.85992 16.04C6.92992 15.1 6.08995 14.12 5.34995 13.1C4.60995 12.07 4.01993 11.05 3.57993 10.03C3.14993 9 2.92993 8.02 2.92993 7.09C2.92993 6.48 3.03994 5.89001 3.24994 5.35001C3.46994 4.80001 3.80995 4.30001 4.28995 3.85001C4.86995 3.28001 5.49994 3 6.15994 3C6.40994 3 6.65995 3.05 6.88995 3.16C7.11995 3.27 7.32993 3.43 7.48993 3.66L9.57993 6.60001C9.73993 6.83001 9.85994 7.03001 9.93994 7.23001C10.0199 7.42001 10.0699 7.61 10.0699 7.78C10.0699 8 10.0099 8.21001 9.87994 8.42001C9.75994 8.63001 9.58994 8.84 9.37994 9.06L8.68994 9.76999C8.58994 9.86999 8.54993 9.99 8.54993 10.13C8.54993 10.2 8.54993 10.26 8.57993 10.34C8.60993 10.41 8.62993 10.47 8.64993 10.52C8.80993 10.82 9.08993 11.2 9.48993 11.67C9.89993 12.14 10.3299 12.61 10.7999 13.09C11.2899 13.57 11.7599 14.01 12.2299 14.41C12.6999 14.81 13.09 15.08 13.39 15.24C13.44 15.26 13.4899 15.29 13.5499 15.31C13.6199 15.34 13.6899 15.35 13.7799 15.35C13.9299 15.35 14.0499 15.3 14.1499 15.2L14.8399 14.53C15.0699 14.3 15.2799 14.13 15.4899 14.03C15.6999 13.9 15.8999 13.84 16.1299 13.84C16.2999 13.84 16.4799 13.88 16.6799 13.96C16.8799 14.04 17.0899 14.16 17.3099 14.31L20.2899 16.42C20.5199 16.58 20.6899 16.77 20.7899 17C20.8799 17.23 20.9299 17.45 20.9299 17.7H20.9399Z"
            stroke="#828282" stroke-width="1.5" stroke-miterlimit="10" />
    </g>
    <defs>
        <clipPath id="clip0_125_10290">
            <rect width="24" height="24" fill="white" />
        </clipPath>
    </defs>
</svg>
